<mxfile host="app.diagrams.net" modified="2023-05-28T21:37:54.072Z" agent="Mozilla/5.0 (Windows NT 10.0; Win64; x64) AppleWebKit/537.36 (KHTML, like Gecko) Chrome/113.0.0.0 Safari/537.36" version="21.3.5" etag="eBStuib33N89yp0a7Bv-" type="github">
  <diagram name="Page-1" id="s6n8w3cFn9AApGPmrtuN">
    <mxGraphModel>
      <root>
        <mxCell id="0" />
        <mxCell id="1" parent="0" />
      </root>
    </mxGraphModel>
  </diagram>
</mxfile>
